HIERARCHY
ROOT Hips
{
	OFFSET 0.000000 0.000000 0.000000 
	CHANNELS 6 Xposition Yposition Zposition Zrotation Yrotation Xrotation
	JOINT LeftUpLeg
	{
		OFFSET 1.363060 -1.794630 0.839290 
		CHANNELS 3 Zrotation Yrotation Xrotation
		JOINT LeftLeg
		{
			OFFSET 2.448110 -6.726130 0.000000 
			CHANNELS 3 Zrotation Yrotation Xrotation
			JOINT LeftFoot
			{
				OFFSET 2.562200 -7.039590 0.000000 
				CHANNELS 3 Zrotation Yrotation Xrotation
				JOINT LeftToeBase
				{
					OFFSET 0.157640 -0.433110 2.322550 
					CHANNELS 3 Zrotation Yrotation Xrotation
					End Site
					{
						OFFSET 0.000000 0.000000 0.000000 
					}
				}
			}
		}
	}
	JOINT RightUpLeg
	{
		OFFSET -1.305520 -1.794630 0.839290 
		CHANNELS 3 Zrotation Yrotation Xrotation
		JOINT RightLeg
		{
			OFFSET -2.542530 -6.985550 0.000000 
			CHANNELS 3 Zrotation Yrotation Xrotation
			JOINT RightFoot
			{
				OFFSET -2.568260 -7.056230 0.000000 
				CHANNELS 3 Zrotation Yrotation Xrotation
				JOINT RightToeBase
				{
					OFFSET -0.164730 -0.452590 2.363150 
					CHANNELS 3 Zrotation Yrotation Xrotation
					End Site
					{
						OFFSET 0.000000 0.000000 0.000000 
					}
				}
			}
		}
	}
	JOINT Spine
	{
		OFFSET 0.028270 2.035590 -0.193380 
		CHANNELS 3 Zrotation Yrotation Xrotation
		JOINT Spine1
		{
			OFFSET 0.056720 2.048850 -0.042750 
			CHANNELS 3 Zrotation Yrotation Xrotation
			JOINT Neck1
			{
				OFFSET -0.054170 1.746240 0.172020 
				CHANNELS 3 Zrotation Yrotation Xrotation
				JOINT Head
				{
					OFFSET 0.104070 1.761360 -0.123970 
					CHANNELS 3 Zrotation Yrotation Xrotation
					End Site
					{
						OFFSET 0.000000 0.000000 0.000000 
					}
				}
			}
			JOINT LeftArm
			{
				OFFSET 3.362410 1.200890 -0.311210 
				CHANNELS 3 Zrotation Yrotation Xrotation
				JOINT LeftForeArm
				{
					OFFSET 4.983000 -0.000000 -0.000000 
					CHANNELS 3 Zrotation Yrotation Xrotation
					JOINT LeftHand
					{
						OFFSET 3.483560 -0.000000 -0.000000 
						CHANNELS 3 Zrotation Yrotation Xrotation
						JOINT LeftHandIndex1
						{
							OFFSET 0.715260 -0.000000 -0.000000 
							CHANNELS 3 Zrotation Yrotation Xrotation
							End Site
							{
								OFFSET 0.000000 0.000000 0.000000 
							}
						}
					}
				}
			}
			JOINT RightArm
			{
				OFFSET -3.136600 1.374050 -0.404650 
				CHANNELS 3 Zrotation Yrotation Xrotation
				JOINT RightForeArm
				{
					OFFSET -5.241900 -0.000000 -0.000000 
					CHANNELS 3 Zrotation Yrotation Xrotation
					JOINT RightHand
					{
						OFFSET -3.444170 -0.000000 -0.000000 
						CHANNELS 3 Zrotation Yrotation Xrotation
						JOINT RightHandIndex1
						{
							OFFSET -0.622530 -0.000000 -0.000000 
							CHANNELS 3 Zrotation Yrotation Xrotation
							End Site
							{
								OFFSET 0.000000 0.000000 0.000000 
							}
						}
					}
				}
			}
		}
	}
}
MOTION
Frames: 9
Frame Time: 0.041667
-21.384238 17.121569 -2.949576 -68.542320 83.007300 -63.918241 -9.468997 6.412163 -28.251711 2.312274 13.737405 37.633571 0.171933 2.278080 2.285998 0.215800 -2.990700 -8.253000 27.635199 -7.111599 6.999886 -16.242146 -22.629024 79.979150 -42.329664 23.887162 179.156361 -4.691500 -13.027700 39.472300 -0.238951 3.355388 -2.107947 -7.953073 2.417235 1.802061 6.373751 -2.029461 4.077740 0.660300 -0.596600 10.420500 -74.874362 20.932969 52.270631 55.369188 -54.150351 -33.928974 -1.859245 0.324012 -12.575099 -7.125000 0.000000 0.000000 78.718361 -9.146277 62.084186 -97.245841 58.025808 -59.780302 2.575194 -0.334265 -19.182147 7.125000 0.000000 0.000000 
-20.764792 17.040748 -2.957690 -58.690568 87.018267 -54.266082 -13.752319 4.131975 -26.987828 2.474164 14.727256 39.811387 0.420151 1.290768 -1.055007 0.067200 -1.672700 -4.601900 22.336965 -8.055962 2.970756 -14.382692 -21.965521 74.658863 -42.051526 21.176340 177.275260 -4.043800 -12.218400 36.509100 -0.451597 2.067459 -2.133265 -7.135587 1.756503 1.510626 6.678032 -1.857650 4.010172 0.853800 -0.486100 10.509400 -75.445630 16.532614 51.604426 54.744298 -53.800516 -33.312741 -1.887254 0.417423 -12.155731 -7.125000 0.000000 0.000000 79.000454 -11.690116 60.514233 -91.216666 59.258920 -54.455586 2.539854 -0.353819 -18.501453 7.125000 0.000000 0.000000 
-20.151325 16.968256 -2.974132 81.176426 88.567411 85.495531 -18.496330 1.774357 -25.196078 2.727520 15.480747 41.791638 0.725172 0.378551 -5.182993 0.195800 -2.849400 -7.859900 17.038017 -8.405668 -1.675376 -12.600563 -21.201999 69.372949 -41.832593 19.134520 176.240865 -3.561800 -11.553300 34.169400 -0.636592 0.789457 -2.120049 -6.044259 1.010345 1.504496 6.902913 -1.572825 3.922160 1.041700 -0.352600 10.573900 -76.071736 11.683043 50.927647 54.421049 -53.563555 -32.966349 -1.906081 0.481405 -12.037825 -7.125000 0.000000 0.000000 78.861522 -14.280752 58.908420 -85.240032 60.110900 -49.726512 2.423165 -0.350048 -17.956851 7.125000 0.000000 0.000000 
-19.545865 16.899286 -2.989185 94.724546 84.992389 99.145980 -22.878798 0.382203 -22.460726 2.369085 15.593653 41.250599 1.184916 -0.933705 -7.706566 0.192800 -2.827600 -7.799200 12.329394 -8.501002 -6.664172 -11.168730 -20.237821 64.849898 -41.600730 17.267575 175.789004 -2.562100 -9.949900 28.814700 -0.819505 -0.190842 -2.111843 -5.031697 0.515419 1.516385 7.135069 -1.299065 3.646716 1.232200 -0.230700 10.432500 -76.523881 6.612945 50.541344 54.500400 -53.452324 -32.970205 -1.926606 0.491997 -12.114233 -7.125000 0.000000 0.000000 78.521441 -17.126369 57.381398 -79.539547 60.480234 -45.435724 2.267527 -0.402674 -16.975542 7.125000 0.000000 0.000000 
-18.970726 16.837896 -2.986089 101.461438 82.456759 106.112687 -25.662881 -0.614351 -19.552733 1.977259 15.408365 40.089922 1.735482 -2.680931 -9.240830 0.113800 -2.175000 -5.989500 9.617556 -8.711370 -12.699735 -9.803107 -19.225060 60.366476 -41.255626 14.553592 174.337610 -1.720700 -8.258200 23.501200 -0.898135 -1.160235 -2.113534 -4.161839 0.006191 1.471255 7.360109 -1.102252 3.281301 1.393500 -0.137500 10.244600 -76.813526 1.239025 50.196745 54.469764 -53.289954 -32.888794 -1.947304 0.559102 -12.336193 -7.125000 0.000000 0.000000 78.129292 -20.000883 55.867406 -74.558244 60.423422 -41.950669 2.124235 -0.348711 -16.349992 7.125000 0.000000 0.000000 
-18.353308 16.785048 -3.007442 106.140734 80.197896 111.023164 -28.281933 -1.141323 -16.152038 1.488586 15.007213 38.378311 2.063393 -3.755401 -10.443662 0.178600 -2.722000 -7.505800 7.184361 -8.821073 -18.302698 -8.844216 -18.286617 56.924785 -40.871044 11.578867 173.010442 -1.040200 -6.486400 18.202600 -0.940777 -2.119590 -2.149143 -3.390121 -0.502629 1.391817 7.596427 -1.025324 3.155254 1.610800 -0.095500 10.243400 -77.274028 -3.732899 49.922783 55.116953 -53.336007 -33.388426 -1.905401 0.584251 -12.401721 -7.125000 0.000000 0.000000 77.348610 -23.398787 54.663117 -70.821691 60.119493 -39.469953 2.000932 -0.275003 -16.350042 7.125000 0.000000 0.000000 
-17.731620 16.766685 -3.021108 112.943736 79.903990 118.485589 -28.097966 -1.530259 -13.576446 1.093088 14.541505 36.837565 2.063959 -3.604973 -10.871198 0.404100 -4.081300 -11.305400 7.615228 -8.180162 -24.223589 -8.271886 -17.769393 54.921390 -40.662200 9.889296 172.663685 -0.855900 -5.900000 16.494700 -0.808799 -2.729534 -2.082526 -2.722928 -0.920880 2.074531 7.747208 -0.901558 2.999254 1.802900 -0.042800 10.147900 -78.002626 -9.060985 49.501407 56.181650 -53.552393 -34.277235 -1.887392 0.639752 -11.584169 -7.125000 0.000000 0.000000 76.084367 -26.334038 53.743655 -68.251614 59.805077 -37.862164 1.898909 -0.215983 -17.044578 7.125000 0.000000 0.000000 
-17.102245 16.757503 -3.032852 118.373733 79.037009 124.520292 -28.480575 -2.234768 -11.122265 0.931429 14.319362 36.096897 2.343621 -4.423064 -11.830909 0.323800 -3.657600 -10.115400 7.309943 -7.626046 -29.874347 -7.970728 -17.318061 53.677476 -40.454746 8.090766 172.488077 -0.836300 -5.833800 16.303000 -0.700158 -3.478073 -2.173699 -2.067437 -1.372409 1.932123 7.780451 -0.761403 3.020651 1.856700 0.009200 10.269100 -78.719753 -13.577596 49.177023 57.612791 -53.817207 -35.473073 -1.855244 0.735758 -9.831257 -7.125000 0.000000 0.000000 74.881814 -29.891709 53.144366 -66.841766 59.489024 -37.050869 1.831500 -0.169677 -17.828359 7.125000 0.000000 0.000000 
-16.440627 16.756222 -3.063280 118.984927 78.270917 125.539285 -29.355654 -2.190958 -8.330050 0.695511 13.959637 34.950874 2.628021 -5.229655 -12.995937 0.244400 -3.181300 -8.783800 6.246431 -6.156358 -34.455990 -7.963031 -17.123746 53.428820 -40.253610 6.115601 172.469161 -0.797200 -5.699100 15.913800 -0.586249 -3.839452 -2.112128 -0.981751 -1.731769 2.725258 7.736786 -0.447648 3.176165 1.903800 0.122500 10.516200 -79.879256 -18.475181 48.350448 59.005512 -54.081966 -36.680915 -1.785501 0.816904 -7.692535 -7.125000 0.000000 0.000000 73.113593 -32.782747 52.883509 -65.723137 59.210125 -36.502722 1.757527 -0.114702 -18.583762 7.125000 0.000000 0.000000 
